<?xml version="1.0" encoding="UTF-8" standalone="no"?>
<!DOCTYPE svg PUBLIC "-//W3C//DTD SVG 1.1//EN" "http://www.w3.org/Graphics/SVG/1.1/DTD/svg11.dtd">
<svg xmlns:xl="http://www.w3.org/1999/xlink" xmlns="http://www.w3.org/2000/svg" version="1.1" xmlns:dc="http://purl.org/dc/elements/1.1/" viewBox="218 228 275 223" width="275" height="223">
  <defs/>
  <metadata> Produced by OmniGraffle 7.11.2 
    <dc:date>2019-09-12 15:13:01 +0000</dc:date>
  </metadata>
  <g id="Canvas_1" stroke-dasharray="none" fill="none" stroke-opacity="1" stroke="none" fill-opacity="1">
    <title>Canvas 1</title>
    <rect fill="white" x="218" y="228" width="275" height="223"/>
    <g id="Canvas_1: Layer 1">
      <title>Layer 1</title>
      <g id="Group_4">
        <g id="Graphic_8">
          <rect x="303" y="229" width="21" height="21" fill="white"/>
          <rect x="303" y="229" width="21" height="21" stroke="#6d5000" stroke-linecap="round" stroke-linejoin="round" stroke-width="1"/>
        </g>
        <g id="Graphic_15">
          <rect x="450" y="229" width="21" height="21" fill="white"/>
          <rect x="450" y="229" width="21" height="21" stroke="#6d5000" stroke-linecap="round" stroke-linejoin="round" stroke-width="1"/>
        </g>
        <g id="Graphic_13">
          <rect x="408" y="229" width="21" height="21" fill="white"/>
          <rect x="408" y="229" width="21" height="21" stroke="#6d5000" stroke-linecap="round" stroke-linejoin="round" stroke-width="1"/>
        </g>
        <g id="Graphic_6">
          <rect x="261" y="229" width="21" height="21" fill="white"/>
          <rect x="261" y="229" width="21" height="21" stroke="#6d5000" stroke-linecap="round" stroke-linejoin="round" stroke-width="1"/>
        </g>
        <g id="Graphic_5">
          <rect x="240" y="229" width="21" height="21" fill="white"/>
          <rect x="240" y="229" width="21" height="21" stroke="#6d5000" stroke-linecap="round" stroke-linejoin="round" stroke-width="1"/>
        </g>
        <g id="Graphic_11">
          <rect x="366" y="229" width="21" height="21" fill="white"/>
          <rect x="366" y="229" width="21" height="21" stroke="#6d5000" stroke-linecap="round" stroke-linejoin="round" stroke-width="1"/>
        </g>
        <g id="Graphic_9">
          <rect x="324" y="229" width="21" height="21" fill="white"/>
          <rect x="324" y="229" width="21" height="21" stroke="#6d5000" stroke-linecap="round" stroke-linejoin="round" stroke-width="1"/>
        </g>
        <g id="Graphic_14">
          <rect x="429" y="229" width="21" height="21" fill="white"/>
          <rect x="429" y="229" width="21" height="21" stroke="#6d5000" stroke-linecap="round" stroke-linejoin="round" stroke-width="1"/>
        </g>
        <g id="Graphic_16">
          <rect x="471" y="229" width="21" height="21" fill="white"/>
          <rect x="471" y="229" width="21" height="21" stroke="#6d5000" stroke-linecap="round" stroke-linejoin="round" stroke-width="1"/>
        </g>
        <g id="Graphic_12">
          <rect x="387" y="229" width="21" height="21" fill="white"/>
          <rect x="387" y="229" width="21" height="21" stroke="#6d5000" stroke-linecap="round" stroke-linejoin="round" stroke-width="1"/>
        </g>
        <g id="Graphic_10">
          <rect x="345" y="229" width="21" height="21" fill="white"/>
          <rect x="345" y="229" width="21" height="21" stroke="#6d5000" stroke-linecap="round" stroke-linejoin="round" stroke-width="1"/>
        </g>
        <g id="Graphic_7">
          <rect x="282" y="229" width="21" height="21" fill="white"/>
          <rect x="282" y="229" width="21" height="21" stroke="#6d5000" stroke-linecap="round" stroke-linejoin="round" stroke-width="1"/>
        </g>
        <g id="Graphic_3">
          <rect x="219" y="229" width="21" height="21" fill="white"/>
          <rect x="219" y="229" width="21" height="21" stroke="#6d5000" stroke-linecap="round" stroke-linejoin="round" stroke-width="1"/>
        </g>
      </g>
      <g id="Graphic_26">
        <rect x="219" y="229" width="63" height="21" stroke="#b1001c" stroke-linecap="round" stroke-linejoin="round" stroke-width="2"/>
      </g>
      <g id="Group_28">
        <g id="Graphic_41">
          <rect x="303" y="428.5" width="21" height="21" fill="white"/>
          <rect x="303" y="428.5" width="21" height="21" stroke="#6d5000" stroke-linecap="round" stroke-linejoin="round" stroke-width="1"/>
        </g>
        <g id="Graphic_40">
          <rect x="450" y="428.5" width="21" height="21" fill="white"/>
          <rect x="450" y="428.5" width="21" height="21" stroke="#6d5000" stroke-linecap="round" stroke-linejoin="round" stroke-width="1"/>
        </g>
        <g id="Graphic_39">
          <rect x="408" y="428.5" width="21" height="21" fill="white"/>
          <rect x="408" y="428.5" width="21" height="21" stroke="#6d5000" stroke-linecap="round" stroke-linejoin="round" stroke-width="1"/>
        </g>
        <g id="Graphic_38">
          <rect x="261" y="428.5" width="21" height="21" fill="white"/>
          <rect x="261" y="428.5" width="21" height="21" stroke="#6d5000" stroke-linecap="round" stroke-linejoin="round" stroke-width="1"/>
        </g>
        <g id="Graphic_37">
          <rect x="240" y="428.5" width="21" height="21" fill="white"/>
          <rect x="240" y="428.5" width="21" height="21" stroke="#6d5000" stroke-linecap="round" stroke-linejoin="round" stroke-width="1"/>
        </g>
        <g id="Graphic_36">
          <rect x="366" y="428.5" width="21" height="21" fill="white"/>
          <rect x="366" y="428.5" width="21" height="21" stroke="#6d5000" stroke-linecap="round" stroke-linejoin="round" stroke-width="1"/>
        </g>
        <g id="Graphic_35">
          <rect x="324" y="428.5" width="21" height="21" fill="white"/>
          <rect x="324" y="428.5" width="21" height="21" stroke="#6d5000" stroke-linecap="round" stroke-linejoin="round" stroke-width="1"/>
        </g>
        <g id="Graphic_34">
          <rect x="429" y="428.5" width="21" height="21" fill="white"/>
          <rect x="429" y="428.5" width="21" height="21" stroke="#6d5000" stroke-linecap="round" stroke-linejoin="round" stroke-width="1"/>
        </g>
        <g id="Graphic_33">
          <rect x="471" y="428.5" width="21" height="21" fill="white"/>
          <rect x="471" y="428.5" width="21" height="21" stroke="#6d5000" stroke-linecap="round" stroke-linejoin="round" stroke-width="1"/>
        </g>
        <g id="Graphic_32">
          <rect x="387" y="428.5" width="21" height="21" fill="white"/>
          <rect x="387" y="428.5" width="21" height="21" stroke="#6d5000" stroke-linecap="round" stroke-linejoin="round" stroke-width="1"/>
        </g>
        <g id="Graphic_31">
          <rect x="345" y="428.5" width="21" height="21" fill="white"/>
          <rect x="345" y="428.5" width="21" height="21" stroke="#6d5000" stroke-linecap="round" stroke-linejoin="round" stroke-width="1"/>
        </g>
        <g id="Graphic_30">
          <rect x="282" y="428.5" width="21" height="21" fill="white"/>
          <rect x="282" y="428.5" width="21" height="21" stroke="#6d5000" stroke-linecap="round" stroke-linejoin="round" stroke-width="1"/>
        </g>
        <g id="Graphic_29">
          <rect x="219" y="428.5" width="21" height="21" fill="white"/>
          <rect x="219" y="428.5" width="21" height="21" stroke="#6d5000" stroke-linecap="round" stroke-linejoin="round" stroke-width="1"/>
        </g>
      </g>
      <g id="Graphic_27">
        <rect x="241" y="428.5" width="63" height="21" stroke="#b1001c" stroke-linecap="round" stroke-linejoin="round" stroke-width="2"/>
      </g>
      <g id="Graphic_42">
        <path d="M 348.33984 271.25 L 362.66016 271.25 L 362.66016 390.60547 L 372.25 390.60547 L 355.5 407.25 L 338.75 390.60547 L 348.33984 390.60547 Z" fill="white"/>
        <path d="M 348.33984 271.25 L 362.66016 271.25 L 362.66016 390.60547 L 372.25 390.60547 L 355.5 407.25 L 338.75 390.60547 L 348.33984 390.60547 Z" stroke="#b34400" stroke-linecap="round" stroke-linejoin="round" stroke-width="1"/>
      </g>
    </g>
  </g>
</svg>
